<svg width="19" height="19" viewBox="0 0 19 19" fill="none" xmlns="http://www.w3.org/2000/svg">
<path d="M8.54843 0.945475C8.84676 0.0220334 10.1532 0.0220324 10.4516 0.945474L11.7673 5.01809C12.034 5.84376 12.8027 6.40325 13.6704 6.40325H17.9365C18.9039 6.40325 19.3076 7.63995 18.5265 8.21066L15.0604 10.7434C14.3635 11.2527 14.0719 12.1517 14.3372 12.9731L15.6596 17.0661C15.9575 17.9884 14.9006 18.7528 14.118 18.181L10.68 15.6687C9.97715 15.1552 9.02285 15.1552 8.32002 15.6687L4.882 18.181C4.09941 18.7528 3.04247 17.9884 3.34043 17.0661L4.66275 12.9731C4.92812 12.1517 4.63654 11.2527 3.93958 10.7434L0.473474 8.21066C-0.307563 7.63995 0.0961285 6.40325 1.06346 6.40325H5.32957C6.19726 6.40325 6.96597 5.84376 7.23271 5.01809L8.54843 0.945475Z" fill="#DF635C"/>
</svg>
